# Blender 3.6.5
# www.blender.org
mtllib cone.mtl
o Cone
v -0.000177 -0.651125 -1.000221
v 0.194911 -0.648917 -0.981009
v 0.382502 -0.646233 -0.924106
v 0.555386 -0.643171 -0.831700
v 0.706920 -0.639840 -0.707341
v 0.831280 -0.636366 -0.555808
v 0.923687 -0.632882 -0.382925
v 0.980589 -0.629523 -0.195336
v 0.999801 -0.626425 -0.000250
v 0.980584 -0.623712 0.194837
v 0.923676 -0.621498 0.382428
v 0.831265 -0.619876 0.555312
v 0.706901 -0.618912 0.706848
v 0.555364 -0.618650 0.831210
v 0.382478 -0.619098 0.923620
v 0.194885 -0.620237 0.980528
v -0.000203 -0.622018 0.999744
v -0.195292 -0.624366 0.980533
v -0.382882 -0.627181 0.923630
v -0.555766 -0.630348 0.831224
v -0.707300 -0.633740 0.706865
v -0.831660 -0.637223 0.555333
v -0.924066 -0.640662 0.382450
v -0.980969 -0.643929 0.194861
v -1.000182 -0.646902 -0.000226
v -0.980965 -0.649476 -0.195313
v -0.924057 -0.651558 -0.382904
v -0.831646 -0.653076 -0.555789
v -0.707282 -0.653977 -0.707325
v -0.555745 -0.654231 -0.831687
v -0.382859 -0.653828 -0.924097
v -0.195266 -0.652781 -0.981004
v -0.007197 5.566052 -0.009560
vn 0.0950 0.1567 -0.9831
vn 0.2846 0.1571 -0.9457
vn 0.4633 0.1574 -0.8721
vn 0.6244 0.1579 -0.7650
vn 0.7615 0.1583 -0.6286
vn 0.8694 0.1587 -0.4679
vn 0.9439 0.1592 -0.2892
vn 0.9822 0.1596 -0.0993
vn 0.9826 0.1599 0.0946
vn 0.9451 0.1602 0.2848
vn 0.8711 0.1605 0.4641
vn 0.7635 0.1606 0.6256
vn 0.6263 0.1607 0.7628
vn 0.4650 0.1606 0.8706
vn 0.2856 0.1605 0.9448
vn 0.0953 0.1603 0.9824
vn -0.0986 0.1601 0.9822
vn -0.2887 0.1598 0.9440
vn -0.4676 0.1594 0.8694
vn -0.6284 0.1590 0.7614
vn -0.7650 0.1585 0.6242
vn -0.8721 0.1581 0.4630
vn -0.9457 0.1577 0.2841
vn -0.9830 0.1573 0.0944
vn -0.9827 0.1569 -0.0989
vn -0.9446 0.1566 -0.2883
vn -0.8705 0.1564 -0.4667
vn -0.7631 0.1562 -0.6272
vn -0.6265 0.1562 -0.7637
vn -0.4659 0.1562 -0.8709
vn 0.0102 -0.9998 0.0146
vn -0.2875 0.1563 -0.9449
vn -0.0981 0.1565 -0.9828
vt 0.250000 0.490000
vt 0.250000 0.250000
vt 0.296822 0.485388
vt 0.341844 0.471731
vt 0.383337 0.449553
vt 0.419706 0.419706
vt 0.449553 0.383337
vt 0.471731 0.341844
vt 0.485388 0.296822
vt 0.490000 0.250000
vt 0.485388 0.203178
vt 0.471731 0.158156
vt 0.449553 0.116663
vt 0.419706 0.080294
vt 0.383337 0.050447
vt 0.341844 0.028269
vt 0.296822 0.014612
vt 0.250000 0.010000
vt 0.203178 0.014612
vt 0.158156 0.028269
vt 0.116663 0.050447
vt 0.080294 0.080294
vt 0.050447 0.116663
vt 0.028269 0.158156
vt 0.014612 0.203178
vt 0.010000 0.250000
vt 0.014612 0.296822
vt 0.028269 0.341844
vt 0.050447 0.383337
vt 0.080294 0.419706
vt 0.116663 0.449553
vt 0.158156 0.471731
vt 0.750000 0.490000
vt 0.796822 0.485388
vt 0.841844 0.471731
vt 0.883337 0.449553
vt 0.919706 0.419706
vt 0.949553 0.383337
vt 0.971731 0.341844
vt 0.985388 0.296822
vt 0.990000 0.250000
vt 0.985388 0.203178
vt 0.971731 0.158156
vt 0.949553 0.116663
vt 0.919706 0.080294
vt 0.883337 0.050447
vt 0.841844 0.028269
vt 0.796822 0.014612
vt 0.750000 0.010000
vt 0.703178 0.014612
vt 0.658156 0.028269
vt 0.616663 0.050447
vt 0.580294 0.080294
vt 0.550447 0.116663
vt 0.528269 0.158156
vt 0.514612 0.203178
vt 0.510000 0.250000
vt 0.514612 0.296822
vt 0.528269 0.341844
vt 0.550447 0.383337
vt 0.580294 0.419706
vt 0.616663 0.449553
vt 0.658156 0.471731
vt 0.703178 0.485388
vt 0.203178 0.485388
s 0
f 1/1/1 33/2/1 2/3/1
f 2/3/2 33/2/2 3/4/2
f 3/4/3 33/2/3 4/5/3
f 4/5/4 33/2/4 5/6/4
f 5/6/5 33/2/5 6/7/5
f 6/7/6 33/2/6 7/8/6
f 7/8/7 33/2/7 8/9/7
f 8/9/8 33/2/8 9/10/8
f 9/10/9 33/2/9 10/11/9
f 10/11/10 33/2/10 11/12/10
f 11/12/11 33/2/11 12/13/11
f 12/13/12 33/2/12 13/14/12
f 13/14/13 33/2/13 14/15/13
f 14/15/14 33/2/14 15/16/14
f 15/16/15 33/2/15 16/17/15
f 16/17/16 33/2/16 17/18/16
f 17/18/17 33/2/17 18/19/17
f 18/19/18 33/2/18 19/20/18
f 19/20/19 33/2/19 20/21/19
f 20/21/20 33/2/20 21/22/20
f 21/22/21 33/2/21 22/23/21
f 22/23/22 33/2/22 23/24/22
f 23/24/23 33/2/23 24/25/23
f 24/25/24 33/2/24 25/26/24
f 25/26/25 33/2/25 26/27/25
f 26/27/26 33/2/26 27/28/26
f 27/28/27 33/2/27 28/29/27
f 28/29/28 33/2/28 29/30/28
f 29/30/29 33/2/29 30/31/29
f 30/31/30 33/2/30 31/32/30
f 1/33/31 2/34/31 3/35/31 4/36/31 5/37/31 6/38/31 7/39/31 8/40/31 9/41/31 10/42/31 11/43/31 12/44/31 13/45/31 14/46/31 15/47/31 16/48/31 17/49/31 18/50/31 19/51/31 20/52/31 21/53/31 22/54/31 23/55/31 24/56/31 25/57/31 26/58/31 27/59/31 28/60/31 29/61/31 30/62/31 31/63/31 32/64/31
f 31/32/32 33/2/32 32/65/32
f 32/65/33 33/2/33 1/1/33
